<?xml version="1.0"?>
<svg xmlns="http://www.w3.org/2000/svg" xmlns:xlink="http://www.w3.org/1999/xlink" xmlns:svgjs="http://svgjs.com/svgjs" version="1.1" width="512" height="512" x="0" y="0" viewBox="0 0 512 512" style="enable-background:new 0 0 512 512" xml:space="preserve"><g><g xmlns="http://www.w3.org/2000/svg"><g><g><path d="m69.028 103.189 8.324 23.407c.356 1.002 1.062 1.796 1.952 2.198l20.796 9.369c2.938 1.324 2.938 6.005 0 7.329l-20.796 9.37c-.89.401-1.596 1.195-1.952 2.197l-8.324 23.407c-1.176 3.307-5.335 3.307-6.511 0l-8.324-23.407c-.356-1.002-1.062-1.796-1.952-2.197l-20.796-9.37c-2.938-1.324-2.938-6.005 0-7.329l20.796-9.369c.89-.401 1.596-1.195 1.952-2.198l8.324-23.407c1.176-3.306 5.335-3.306 6.511 0z" fill="#63e7ca" data-original="#000000" style=""/><path d="m458.075 129.904 6.175 17.363c.264.743.788 1.333 1.448 1.63l15.426 6.95c2.179.982 2.179 4.454 0 5.436l-15.426 6.95c-.66.298-1.184.887-1.448 1.63l-6.175 17.363c-.872 2.453-3.957 2.453-4.83 0l-6.175-17.363c-.264-.743-.788-1.332-1.448-1.63l-15.426-6.95c-2.179-.982-2.179-4.454 0-5.436l15.426-6.95c.661-.298 1.184-.887 1.448-1.63l6.175-17.363c.873-2.453 3.958-2.453 4.83 0z" fill="#63e7ca" data-original="#000000" style=""/><circle cx="147.28" cy="27.889" r="18.177" fill="#63e7ca" data-original="#000000" style=""/><circle cx="114.596" cy="94.691" r="7.841" fill="#63e7ca" data-original="#000000" style=""/><path d="m240.266 55.369 6.175 17.363c.264.743.788 1.333 1.448 1.63l15.426 6.95c2.179.982 2.179 4.454 0 5.436l-15.426 6.95c-.66.298-1.184.887-1.448 1.63l-6.175 17.363c-.872 2.453-3.957 2.453-4.83 0l-6.175-17.363c-.264-.743-.788-1.332-1.448-1.63l-15.426-6.95c-2.179-.982-2.179-4.454 0-5.436l15.426-6.95c.661-.298 1.184-.887 1.448-1.63l6.175-17.363c.873-2.453 3.958-2.453 4.83 0z" fill="#63e7ca" data-original="#000000" style=""/></g><g><path d="m405.423 227.668c-4.116-4.573-9.972-7.223-16.115-7.32-.544-6.371-1.453-12.602-2.812-18.498-7.901-34.291-8.182-76.679-.837-116.959 5.242-3.959 9.093-9.575 10.851-15.993l7.117-25.978c2.114-7.716 1.097-15.794-2.865-22.745-3.961-6.951-10.392-11.944-18.108-14.058l-18.423-5.048c-15.928-4.367-32.439 5.044-36.803 20.973l-7.117 25.979c-1.83 6.68-1.281 13.703 1.459 19.94-13.783 37.647-35.698 74.171-60.547 100.773-4.724 5.058-9.17 10.785-13.288 16.866-1.2-4.486-3.638-8.552-7.134-11.778-4.872-4.496-11.213-6.82-17.828-6.56l-30.818 1.237c-6.625.266-12.749 3.096-17.245 7.968-.136.147-.258.305-.391.455l-3.896-4.621c-4.274-5.069-10.265-8.17-16.871-8.732-6.609-.56-13.036 1.482-18.104 5.756l-23.579 19.88c-5.069 4.273-8.17 10.265-8.732 16.871-.461 5.408.828 10.696 3.654 15.218-4.037 1.119-7.722 3.368-10.57 6.538-4.192 4.666-6.215 10.919-5.558 17.063l24.113 247.305c1.205 11.29 10.673 19.801 22.026 19.8h.011l228.098-.122c11.358-.007 20.823-8.529 22.025-19.914l23.854-247.147c.659-6.237-1.37-12.488-5.567-17.149zm-63.019-157.217c1.06-3.036.617-6.395-1.196-9.052-1.609-2.358-2.1-5.282-1.35-8.022l7.117-25.978c1.177-4.298 5.089-7.127 9.344-7.127 1.059-.401 19.46 5.101 20.979 5.393 5.05 1.272 8.261 6.907 6.781 11.9l-7.117 25.978c-.734 2.68-2.508 4.844-4.996 6.094-2.798 1.407-4.788 4.028-5.392 7.101-5.399 27.485-7.452 55.401-6.195 81.816l-9.406 2.593c-.381-10.119-5.82-18.528-14.454-20.894-5.646-1.546-11.855-.105-17.036 3.959-2.314 1.815-4.346 4.082-6.029 6.672l-7.097-7.364c14.667-22.463 27.157-47.612 36.047-73.069zm-4.321 97.287c-1.055 3.85-3.177 7.248-5.823 9.322-1.246.978-3.723 2.513-6.317 1.8-2.594-.711-3.944-3.293-4.518-4.768-1.218-3.134-1.312-7.139-.258-10.988 1.055-3.85 3.177-7.248 5.822-9.323 1.024-.803 2.88-1.982 4.949-1.982.448 0 .907.055 1.369.182 4.505 1.234 6.737 8.598 4.776 15.757zm-62.048 14.831c8.128-8.702 15.956-18.388 23.332-28.78l9.323 9.674c-.832 5.247-.372 10.479 1.401 15.037 2.386 6.136 6.993 10.542 12.638 12.088 1.484.407 3.008.607 4.542.607 4.298 0 8.675-1.572 12.493-4.566 3.849-3.018 6.91-7.286 8.869-12.223l12.598-3.474c1.096 12.298 2.919 24.199 5.515 35.468 1.021 4.431 1.743 9.123 2.217 13.948l-111.096.059c-1.156-1.799-2.492-3.471-3.99-4.985 6.104-11.947 13.681-23.778 22.158-32.853zm-104.174 44.106h60.445c5.57 0 10.101 4.532 10.101 10.101v133.386c0 5.57-4.531 10.101-10.101 10.101h-60.445c-5.57 0-10.101-4.531-10.101-10.101v-133.386c0-5.569 4.532-10.101 10.101-10.101zm16.741-33.192c-.101-2.509 1.858-4.632 4.366-4.732l30.818-1.237c.062-.003.124-.004.185-.004 2.427 0 4.448 1.924 4.547 4.37l.583 14.528h-33.356c-.862-3.836-2.634-7.435-5.241-10.527l-1.896-2.249zm-65.071 14.312c.06-.702.347-2.037 1.602-3.095l23.58-19.881c2.469-1.607 4.102-1.592 6.415.546l17.741 21.042h-1.009c-10.746 0-20.2 5.616-25.599 14.061l-13.783.007-7.892-9.36c-1.057-1.253-1.114-2.618-1.055-3.32zm243.44 282.131c-.101.96-.906 1.684-1.871 1.684l-228.097.122c-.966 0-1.771-.723-1.864-1.591l-24.114-247.305c-.073-.689.216-1.174.472-1.458s.706-.624 1.4-.624l28.595-.015v129.424c0 16.746 13.623 30.369 30.369 30.369h60.445c16.746 0 30.369-13.623 30.369-30.369v-129.489l126.285-.068h.001c.692 0 1.143.339 1.399.623.256.285.546.769.464 1.549z" fill="#63e7ca" data-original="#000000" style=""/><path d="m184.931 330.645c-.061 0-.122 0-.184-.001-5.596-.1-10.051-4.717-9.952-10.313.132-7.42.173-15.276.122-23.351-.035-5.596 4.473-10.163 10.07-10.198 5.634-.041 10.163 4.473 10.198 10.07.052 8.237.01 16.258-.125 23.841-.099 5.533-4.616 9.952-10.129 9.952z" fill="#63e7ca" data-original="#000000" style=""/><path d="m184.927 271.957c-5.597 0-10.134-4.537-10.134-10.134v-4.009c0-5.597 4.537-10.134 10.134-10.134s10.134 4.537 10.134 10.134v4.009c0 5.597-4.537 10.134-10.134 10.134z" fill="#63e7ca" data-original="#000000" style=""/></g></g></g></g></svg>
